<?xml version="1.0" encoding="UTF-8" standalone="no"?>
<!DOCTYPE svg PUBLIC "-//W3C//DTD SVG 1.1//EN"
 "http://www.w3.org/Graphics/SVG/1.1/DTD/svg11.dtd">
<!-- Generated by graphviz version 2.50.0 (20211204.2007)
 -->
<!-- Title: dependency&#45;cruiser output Pages: 1 -->
<svg width="353pt" height="290pt"
 viewBox="0.00 0.00 353.00 290.00" xmlns="http://www.w3.org/2000/svg" xmlns:xlink="http://www.w3.org/1999/xlink">
<g id="graph0" class="graph" transform="scale(1 1) rotate(0) translate(4 286)">
<title>dependency&#45;cruiser output</title>
<polygon fill="white" stroke="transparent" points="-4,4 -4,-286 349,-286 349,4 -4,4"/>
<g id="clust1" class="cluster">
<title>cluster_src</title>
<path fill="#ffffff" stroke="black" stroke-width="2" d="M20,-8C20,-8 325,-8 325,-8 331,-8 337,-14 337,-20 337,-20 337,-262 337,-262 337,-268 331,-274 325,-274 325,-274 20,-274 20,-274 14,-274 8,-268 8,-262 8,-262 8,-20 8,-20 8,-14 14,-8 20,-8"/>
<text text-anchor="middle" x="172.5" y="-262.8" font-family="Helvetica,sans-Serif" font-weight="bold" font-size="9.00">src</text>
</g>
<g id="clust2" class="cluster">
<title>cluster_src/components</title>
<path fill="#ffffff" stroke="black" stroke-width="2" d="M157,-16C157,-16 317,-16 317,-16 323,-16 329,-22 329,-28 329,-28 329,-236 329,-236 329,-242 323,-248 317,-248 317,-248 157,-248 157,-248 151,-248 145,-242 145,-236 145,-236 145,-28 145,-28 145,-22 151,-16 157,-16"/>
<text text-anchor="middle" x="237" y="-236.8" font-family="Helvetica,sans-Serif" font-weight="bold" font-size="9.00">components</text>
</g>
<!-- src/App.js -->
<g id="node1" class="node">
<title>src/App.js</title>
<g id="a_node1"><a xlink:href="src/App.js" xlink:title="App.js">
<path fill="#ffffcc" stroke="black" d="M131,-132C131,-132 89,-132 89,-132 86,-132 83,-129 83,-126 83,-126 83,-120 83,-120 83,-117 86,-114 89,-114 89,-114 131,-114 131,-114 134,-114 137,-117 137,-120 137,-120 137,-126 137,-126 137,-129 134,-132 131,-132"/>
<text text-anchor="start" x="97" y="-120.8" font-family="Helvetica,sans-Serif" font-size="9.00">App.js</text>
</a>
</g>
</g>
<!-- src/components/AlbumList.js -->
<g id="node2" class="node">
<title>src/components/AlbumList.js</title>
<g id="a_node2"><a xlink:href="src/components/AlbumList.js" xlink:title="AlbumList.js">
<path fill="#ffffcc" stroke="black" d="M221.5,-222C221.5,-222 167.5,-222 167.5,-222 164.5,-222 161.5,-219 161.5,-216 161.5,-216 161.5,-210 161.5,-210 161.5,-207 164.5,-204 167.5,-204 167.5,-204 221.5,-204 221.5,-204 224.5,-204 227.5,-207 227.5,-210 227.5,-210 227.5,-216 227.5,-216 227.5,-219 224.5,-222 221.5,-222"/>
<text text-anchor="start" x="169.5" y="-210.8" font-family="Helvetica,sans-Serif" font-size="9.00">AlbumList.js</text>
</a>
</g>
</g>
<!-- src/App.js&#45;&gt;src/components/AlbumList.js -->
<g id="edge1" class="edge">
<title>src/App.js&#45;&gt;src/components/AlbumList.js</title>
<path fill="none" stroke="#000000" stroke-width="2" stroke-opacity="0.200000" d="M112.65,-132.3C115.95,-148.11 124.84,-180.23 145,-198 148.15,-200.78 151.82,-203.05 155.69,-204.89"/>
<polygon fill="#000000" fill-opacity="0.200000" stroke="#000000" stroke-width="2" stroke-opacity="0.200000" points="155.13,-206.93 161.48,-207.3 156.75,-203.06 155.13,-206.93"/>
</g>
<!-- src/components/AlbumPhotos.js -->
<g id="node3" class="node">
<title>src/components/AlbumPhotos.js</title>
<g id="a_node3"><a xlink:href="src/components/AlbumPhotos.js" xlink:title="AlbumPhotos.js">
<path fill="#ffffcc" stroke="black" d="M228.5,-132C228.5,-132 160.5,-132 160.5,-132 157.5,-132 154.5,-129 154.5,-126 154.5,-126 154.5,-120 154.5,-120 154.5,-117 157.5,-114 160.5,-114 160.5,-114 228.5,-114 228.5,-114 231.5,-114 234.5,-117 234.5,-120 234.5,-120 234.5,-126 234.5,-126 234.5,-129 231.5,-132 228.5,-132"/>
<text text-anchor="start" x="162.5" y="-120.8" font-family="Helvetica,sans-Serif" font-size="9.00">AlbumPhotos.js</text>
</a>
</g>
</g>
<!-- src/App.js&#45;&gt;src/components/AlbumPhotos.js -->
<g id="edge2" class="edge">
<title>src/App.js&#45;&gt;src/components/AlbumPhotos.js</title>
<path fill="none" stroke="#000000" stroke-width="2" stroke-opacity="0.200000" d="M137.1,-123C140.7,-123 144.47,-123 148.29,-123"/>
<polygon fill="#000000" fill-opacity="0.200000" stroke="#000000" stroke-width="2" stroke-opacity="0.200000" points="148.3,-125.1 154.3,-123 148.3,-120.9 148.3,-125.1"/>
</g>
<!-- src/components/Footer.js -->
<g id="node4" class="node">
<title>src/components/Footer.js</title>
<g id="a_node4"><a xlink:href="src/components/Footer.js" xlink:title="Footer.js">
<path fill="#ffffcc" stroke="black" d="M215.5,-162C215.5,-162 173.5,-162 173.5,-162 170.5,-162 167.5,-159 167.5,-156 167.5,-156 167.5,-150 167.5,-150 167.5,-147 170.5,-144 173.5,-144 173.5,-144 215.5,-144 215.5,-144 218.5,-144 221.5,-147 221.5,-150 221.5,-150 221.5,-156 221.5,-156 221.5,-159 218.5,-162 215.5,-162"/>
<text text-anchor="start" x="176.5" y="-150.8" font-family="Helvetica,sans-Serif" font-size="9.00">Footer.js</text>
</a>
</g>
</g>
<!-- src/App.js&#45;&gt;src/components/Footer.js -->
<g id="edge3" class="edge">
<title>src/App.js&#45;&gt;src/components/Footer.js</title>
<path fill="none" stroke="#000000" stroke-width="2" stroke-opacity="0.200000" d="M130.62,-132.12C135.29,-134.16 140.29,-136.24 145,-138 150.27,-139.97 155.94,-141.89 161.47,-143.67"/>
<polygon fill="#000000" fill-opacity="0.200000" stroke="#000000" stroke-width="2" stroke-opacity="0.200000" points="161.03,-145.73 167.39,-145.53 162.29,-141.73 161.03,-145.73"/>
</g>
<!-- src/components/FullSizePhoto.js -->
<g id="node5" class="node">
<title>src/components/FullSizePhoto.js</title>
<g id="a_node5"><a xlink:href="src/components/FullSizePhoto.js" xlink:title="FullSizePhoto.js">
<path fill="#ffffcc" stroke="black" d="M230,-72C230,-72 159,-72 159,-72 156,-72 153,-69 153,-66 153,-66 153,-60 153,-60 153,-57 156,-54 159,-54 159,-54 230,-54 230,-54 233,-54 236,-57 236,-60 236,-60 236,-66 236,-66 236,-69 233,-72 230,-72"/>
<text text-anchor="start" x="161" y="-60.8" font-family="Helvetica,sans-Serif" font-size="9.00">FullSizePhoto.js</text>
</a>
</g>
</g>
<!-- src/App.js&#45;&gt;src/components/FullSizePhoto.js -->
<g id="edge4" class="edge">
<title>src/App.js&#45;&gt;src/components/FullSizePhoto.js</title>
<path fill="none" stroke="#000000" stroke-width="2" stroke-opacity="0.200000" d="M115.72,-113.69C121.35,-103.49 131.69,-87.34 145,-78 146.66,-76.84 148.41,-75.76 150.23,-74.76"/>
<polygon fill="#000000" fill-opacity="0.200000" stroke="#000000" stroke-width="2" stroke-opacity="0.200000" points="151.37,-76.54 155.83,-72.02 149.52,-72.77 151.37,-76.54"/>
</g>
<!-- src/components/Header.js -->
<g id="node6" class="node">
<title>src/components/Header.js</title>
<g id="a_node6"><a xlink:href="src/components/Header.js" xlink:title="Header.js">
<path fill="#ffffcc" stroke="black" d="M216.5,-102C216.5,-102 172.5,-102 172.5,-102 169.5,-102 166.5,-99 166.5,-96 166.5,-96 166.5,-90 166.5,-90 166.5,-87 169.5,-84 172.5,-84 172.5,-84 216.5,-84 216.5,-84 219.5,-84 222.5,-87 222.5,-90 222.5,-90 222.5,-96 222.5,-96 222.5,-99 219.5,-102 216.5,-102"/>
<text text-anchor="start" x="174.5" y="-90.8" font-family="Helvetica,sans-Serif" font-size="9.00">Header.js</text>
</a>
</g>
</g>
<!-- src/App.js&#45;&gt;src/components/Header.js -->
<g id="edge5" class="edge">
<title>src/App.js&#45;&gt;src/components/Header.js</title>
<path fill="none" stroke="#000000" stroke-width="2" stroke-opacity="0.200000" d="M130.62,-113.88C135.29,-111.84 140.29,-109.76 145,-108 149.93,-106.16 155.19,-104.36 160.37,-102.69"/>
<polygon fill="#000000" fill-opacity="0.200000" stroke="#000000" stroke-width="2" stroke-opacity="0.200000" points="161.29,-104.6 166.38,-100.78 160.02,-100.59 161.29,-104.6"/>
</g>
<!-- src/components/PhotoList.js -->
<g id="node7" class="node">
<title>src/components/PhotoList.js</title>
<g id="a_node7"><a xlink:href="src/components/PhotoList.js" xlink:title="PhotoList.js">
<path fill="#ffffcc" stroke="black" d="M220.5,-192C220.5,-192 168.5,-192 168.5,-192 165.5,-192 162.5,-189 162.5,-186 162.5,-186 162.5,-180 162.5,-180 162.5,-177 165.5,-174 168.5,-174 168.5,-174 220.5,-174 220.5,-174 223.5,-174 226.5,-177 226.5,-180 226.5,-180 226.5,-186 226.5,-186 226.5,-189 223.5,-192 220.5,-192"/>
<text text-anchor="start" x="170.5" y="-180.8" font-family="Helvetica,sans-Serif" font-size="9.00">PhotoList.js</text>
</a>
</g>
</g>
<!-- src/App.js&#45;&gt;src/components/PhotoList.js -->
<g id="edge6" class="edge">
<title>src/App.js&#45;&gt;src/components/PhotoList.js</title>
<path fill="none" stroke="#000000" stroke-width="2" stroke-opacity="0.200000" d="M115.72,-132.31C121.35,-142.51 131.69,-158.66 145,-168 148.57,-170.51 152.57,-172.6 156.71,-174.36"/>
<polygon fill="#000000" fill-opacity="0.200000" stroke="#000000" stroke-width="2" stroke-opacity="0.200000" points="156.05,-176.35 162.4,-176.54 157.55,-172.43 156.05,-176.35"/>
</g>
<!-- src/components/UserInfo.js -->
<g id="node8" class="node">
<title>src/components/UserInfo.js</title>
<g id="a_node8"><a xlink:href="src/components/UserInfo.js" xlink:title="UserInfo.js">
<path fill="#ffffcc" stroke="black" d="M218.5,-42C218.5,-42 170.5,-42 170.5,-42 167.5,-42 164.5,-39 164.5,-36 164.5,-36 164.5,-30 164.5,-30 164.5,-27 167.5,-24 170.5,-24 170.5,-24 218.5,-24 218.5,-24 221.5,-24 224.5,-27 224.5,-30 224.5,-30 224.5,-36 224.5,-36 224.5,-39 221.5,-42 218.5,-42"/>
<text text-anchor="start" x="172.5" y="-30.8" font-family="Helvetica,sans-Serif" font-size="9.00">UserInfo.js</text>
</a>
</g>
</g>
<!-- src/App.js&#45;&gt;src/components/UserInfo.js -->
<g id="edge7" class="edge">
<title>src/App.js&#45;&gt;src/components/UserInfo.js</title>
<path fill="none" stroke="#000000" stroke-width="2" stroke-opacity="0.200000" d="M112.65,-113.7C115.95,-97.89 124.84,-65.77 145,-48 148.9,-44.56 153.57,-41.92 158.46,-39.87"/>
<polygon fill="#000000" fill-opacity="0.200000" stroke="#000000" stroke-width="2" stroke-opacity="0.200000" points="159.35,-41.78 164.25,-37.75 157.9,-37.84 159.35,-41.78"/>
</g>
<!-- src/components/BackButton.js -->
<g id="node9" class="node">
<title>src/components/BackButton.js</title>
<g id="a_node9"><a xlink:href="src/components/BackButton.js" xlink:title="BackButton.js">
<path fill="#ffffcc" stroke="black" d="M315,-109C315,-109 255,-109 255,-109 252,-109 249,-106 249,-103 249,-103 249,-97 249,-97 249,-94 252,-91 255,-91 255,-91 315,-91 315,-91 318,-91 321,-94 321,-97 321,-97 321,-103 321,-103 321,-106 318,-109 315,-109"/>
<text text-anchor="start" x="257" y="-97.8" font-family="Helvetica,sans-Serif" font-size="9.00">BackButton.js</text>
</a>
</g>
</g>
<!-- src/components/AlbumPhotos.js&#45;&gt;src/components/BackButton.js -->
<g id="edge8" class="edge">
<title>src/components/AlbumPhotos.js&#45;&gt;src/components/BackButton.js</title>
<path fill="none" stroke="#000000" stroke-width="2" stroke-opacity="0.200000" d="M230.22,-113.98C234.48,-112.87 238.87,-111.73 243.21,-110.6"/>
<polygon fill="#000000" fill-opacity="0.200000" stroke="#000000" stroke-width="2" stroke-opacity="0.200000" points="243.81,-112.62 249.09,-109.07 242.75,-108.55 243.81,-112.62"/>
</g>
<!-- src/components/Photo.js -->
<g id="node10" class="node">
<title>src/components/Photo.js</title>
<g id="a_node10"><a xlink:href="src/components/Photo.js" xlink:title="Photo.js">
<path fill="#ffffcc" stroke="black" d="M306,-154C306,-154 264,-154 264,-154 261,-154 258,-151 258,-148 258,-148 258,-142 258,-142 258,-139 261,-136 264,-136 264,-136 306,-136 306,-136 309,-136 312,-139 312,-142 312,-142 312,-148 312,-148 312,-151 309,-154 306,-154"/>
<text text-anchor="start" x="268" y="-142.8" font-family="Helvetica,sans-Serif" font-size="9.00">Photo.js</text>
</a>
</g>
</g>
<!-- src/components/AlbumPhotos.js&#45;&gt;src/components/Photo.js -->
<g id="edge9" class="edge">
<title>src/components/AlbumPhotos.js&#45;&gt;src/components/Photo.js</title>
<path fill="none" stroke="#000000" stroke-width="2" stroke-opacity="0.200000" d="M231.75,-132.01C238.48,-133.68 245.46,-135.42 252.04,-137.06"/>
<polygon fill="#000000" fill-opacity="0.200000" stroke="#000000" stroke-width="2" stroke-opacity="0.200000" points="251.63,-139.12 257.96,-138.53 252.64,-135.04 251.63,-139.12"/>
</g>
<!-- src/components/FullSizePhoto.js&#45;&gt;src/components/BackButton.js -->
<g id="edge10" class="edge">
<title>src/components/FullSizePhoto.js&#45;&gt;src/components/BackButton.js</title>
<path fill="none" stroke="#000000" stroke-width="2" stroke-opacity="0.200000" d="M220.89,-72.07C225.92,-73.96 231.15,-75.99 236,-78 243.7,-81.18 251.97,-84.88 259.45,-88.32"/>
<polygon fill="#000000" fill-opacity="0.200000" stroke="#000000" stroke-width="2" stroke-opacity="0.200000" points="258.67,-90.27 264.99,-90.89 260.43,-86.46 258.67,-90.27"/>
</g>
<!-- src/components/PhotoList.js&#45;&gt;src/components/Photo.js -->
<g id="edge11" class="edge">
<title>src/components/PhotoList.js&#45;&gt;src/components/Photo.js</title>
<path fill="none" stroke="#000000" stroke-width="2" stroke-opacity="0.200000" d="M220.92,-173.99C225.95,-172.1 231.17,-170.05 236,-168 244,-164.61 252.6,-160.61 260.28,-156.9"/>
<polygon fill="#000000" fill-opacity="0.200000" stroke="#000000" stroke-width="2" stroke-opacity="0.200000" points="261.47,-158.65 265.95,-154.14 259.63,-154.88 261.47,-158.65"/>
</g>
<!-- src/components/UserField.js -->
<g id="node11" class="node">
<title>src/components/UserField.js</title>
<g id="a_node11"><a xlink:href="src/components/UserField.js" xlink:title="UserField.js">
<path fill="#ffffcc" stroke="black" d="M311.5,-42C311.5,-42 258.5,-42 258.5,-42 255.5,-42 252.5,-39 252.5,-36 252.5,-36 252.5,-30 252.5,-30 252.5,-27 255.5,-24 258.5,-24 258.5,-24 311.5,-24 311.5,-24 314.5,-24 317.5,-27 317.5,-30 317.5,-30 317.5,-36 317.5,-36 317.5,-39 314.5,-42 311.5,-42"/>
<text text-anchor="start" x="260.5" y="-30.8" font-family="Helvetica,sans-Serif" font-size="9.00">UserField.js</text>
</a>
</g>
</g>
<!-- src/components/UserInfo.js&#45;&gt;src/components/UserField.js -->
<g id="edge12" class="edge">
<title>src/components/UserInfo.js&#45;&gt;src/components/UserField.js</title>
<path fill="none" stroke="#000000" stroke-width="2" stroke-opacity="0.200000" d="M224.97,-33C231.67,-33 238.88,-33 245.88,-33"/>
<polygon fill="#000000" fill-opacity="0.200000" stroke="#000000" stroke-width="2" stroke-opacity="0.200000" points="246.23,-35.1 252.23,-33 246.23,-30.9 246.23,-35.1"/>
</g>
<!-- src/index.js -->
<g id="node12" class="node">
<title>src/index.js</title>
<g id="a_node12"><a xlink:href="src/index.js" xlink:title="index.js">
<path fill="#ffffcc" stroke="black" d="M64,-132C64,-132 22,-132 22,-132 19,-132 16,-129 16,-126 16,-126 16,-120 16,-120 16,-117 19,-114 22,-114 22,-114 64,-114 64,-114 67,-114 70,-117 70,-120 70,-120 70,-126 70,-126 70,-129 67,-132 64,-132"/>
<text text-anchor="start" x="27" y="-120.8" font-family="Helvetica,sans-Serif" font-size="9.00">index.js</text>
</a>
</g>
</g>
<!-- src/index.js&#45;&gt;src/App.js -->
<g id="edge13" class="edge">
<title>src/index.js&#45;&gt;src/App.js</title>
<path fill="none" stroke="#000000" stroke-width="2" stroke-opacity="0.200000" d="M70.06,-123C72.32,-123 74.61,-123 76.9,-123"/>
<polygon fill="#000000" fill-opacity="0.200000" stroke="#000000" stroke-width="2" stroke-opacity="0.200000" points="76.93,-125.1 82.93,-123 76.93,-120.9 76.93,-125.1"/>
</g>
</g>
</svg>
